<svg xmlns="http://www.w3.org/2000/svg" viewBox="0 0 560 441.56"><defs><style>.cls-1{fill:#fff;}</style></defs><g id="Layer_2" data-name="Layer 2"><g id="FITNDEX_logo" data-name="FITNDEX logo"><path class="cls-1" d="M171.57,205.72h-46V183.49H96.22V133.63H75.87V304.37H96.22V252.51H125.6V229.18H176A119,119,0,0,1,171.57,205.72Zm-66,26.79h-3.7v-29h3.7Z"/><path class="cls-1" d="M37.22,303.81a.31.31,0,0,0,.31.31h20V133.37H37.22Z"/><path class="cls-1" d="M0,148.06V289.44a14.68,14.68,0,0,0,14.68,14.68h4.38V133.37H14.68A14.69,14.69,0,0,0,0,148.06Z"/><path class="cls-1" d="M464.19,183.49H433.81v22.77H393.23q-1.83,11.87-3.82,23.46h44.4v22.79h30.38v51.86h20.15a.2.2,0,0,0,.2-.2V133.63H464.19Zm-6.68,49h-3.7v-29h3.7Z"/><rect class="cls-1" x="502.83" y="133.37" width="20.36" height="170.74"/><path class="cls-1" d="M545.32,133.37h-4V304.12h4A14.68,14.68,0,0,0,560,289.44V148.06A14.69,14.69,0,0,0,545.32,133.37Z"/><path class="cls-1" d="M509.36.56,484.44.69,303.55,346.57l-9.19,17.57,1.5.59,1.13.45a29.92,29.92,0,0,1,13.77,25.43,30.58,30.58,0,1,1-47.9-25.17h.06s.91-.45,1.72-.8l1.24-.4c.14.19-9.05-17.4-9.05-17.4L76.81.46,50.88.56,238.44,361.45a51,51,0,1,0,83.39-.15Z"/><rect class="cls-1" x="272.2" y="342.77" width="15.96" height="48.09"/><polygon class="cls-1" points="287.3 319.14 272.74 147.12 263.35 225.14 218.66 225.14 212.65 208.2 207.22 225.14 175.6 225.14 175.6 210.14 196.27 210.14 211.92 161.3 229.25 210.14 250.04 210.14 275.34 0 294.82 230.17 300 210.14 320.64 210.14 343.86 113.45 364.4 210.14 386.16 210.14 386.16 225.14 352.25 225.14 342.96 181.43 332.47 225.14 311.61 225.14 287.3 319.14"/></g></g></svg>