<?xml version="1.0" encoding="UTF-8"?><svg id="Layer_2" xmlns="http://www.w3.org/2000/svg" viewBox="0 0 1243.4 250.24"><g id="FITNDEX_2_copy"><polygon points="0 .03 167.11 .03 167.11 28.63 27.7 28.63 27.7 56.46 0 56.46 0 .03"/><polygon points="0 94.82 113.49 94.82 85.79 123.41 27.7 123.41 27.7 250.24 0 250.24 0 94.82"/><polygon points="178.47 .03 178.47 56.46 206.17 56.46 206.17 28.63 344.04 28.63 344.04 .03 178.47 .03"/><polygon points="275.49 75.1 275.49 221.65 316.85 221.65 344.04 250.24 316.85 250.24 206.17 250.24 178.47 250.24 178.47 221.65 206.17 221.65 247.79 221.65 247.79 75.1 275.49 75.1"/><polygon points="355.66 .03 355.66 56.46 383.36 56.46 383.36 28.63 522.64 28.63 522.64 .03 355.66 .03"/><rect x="425.11" y="75.1" width="27.7" height="175.15"/><path d="M533.87,94.82h27.7V250.24h-27.7s0-157.53,0-155.43Z"/><polygon points="534 56.46 561.57 56.46 561.57 .03 533.87 .03 534 56.46"/><polyline points="673.79 250.24 701.49 250.24 701.49 .03 673.79 .03 673.79 250.24"/><polygon points="712.85 .03 712.85 56.46 740.81 56.46 740.81 28.63 811.91 28.63 811.91 20.71 811.91 .03 712.85 .03"/><polygon points="712.85 250.24 880.21 250.24 880.09 71.2 852.51 72.48 852.51 221.65 740.81 221.65 712.85 250.24"/><polygon points="891.45 .03 891.45 56.46 919.15 56.46 919.15 28.63 1057.79 28.63 1057.79 .03 891.45 .03"/><polygon points="891.45 94.82 1005.06 94.82 977.36 123.41 919.15 123.41 919.15 221.65 1057.79 221.65 1057.79 250.24 891.45 250.24 891.45 94.82"/><rect x="1069.08" y=".03" width="27.7" height="56.43"/><polygon points="788.54 .05 817.78 0 880.09 56.41 880.09 75.49 852.51 78.45 852.51 71.73 804.51 28.58 788.23 28.58 788.54 .05"/><polyline points="699.06 235.18 561.58 .05 559.93 .05 536.95 13.31 673.79 250.22"/><polyline points="1242.7 250.24 1236.38 238.85 1096.75 .04 1095.1 .05 1072.12 13.31 1208.96 250.21"/><polygon points="1117.83 165.56 1073.94 241.56 1069.15 250.21 1101.24 250.21 1142.94 178.88 1133.89 171.66 1117.83 165.56"/><path d="M1138.06,123.64c1.39,2.8,21.06,19.6,21.47,19.89l.15-.25L1236.77,11.44,1243.4,.03l-34.06,.04-71.33,123.48s.03,.05,.05,.08Z"/><polygon points="1117.78 191.85 1073.88 115.85 1069.09 107.2 1101.18 107.2 1138.23 170.56 1142.94 178.88 1117.78 191.85"/></g></svg>