<svg xmlns="http://www.w3.org/2000/svg" viewBox="0 0 1243.4 250.24"><defs><style>.cls-1{fill:#fff;}</style></defs><g id="Layer_2" data-name="Layer 2"><g id="FITNDEX_brand_name" data-name="FITNDEX brand_name"><polygon class="cls-1" points="0 0.03 167.11 0.03 167.11 28.63 27.7 28.63 27.7 56.46 0 56.46 0 0.03"/><polygon class="cls-1" points="0 94.82 113.49 94.82 85.79 123.42 27.7 123.42 27.7 250.25 0 250.25 0 94.82"/><polygon class="cls-1" points="178.47 0.03 178.47 56.46 206.17 56.46 206.17 28.63 344.04 28.63 344.04 0.03 178.47 0.03"/><polygon class="cls-1" points="275.49 75.1 275.49 221.65 316.85 221.65 344.04 250.25 316.85 250.25 206.17 250.25 178.47 250.25 178.47 221.65 206.17 221.65 247.79 221.65 247.79 75.1 275.49 75.1"/><polygon class="cls-1" points="355.66 0.03 355.66 56.46 383.36 56.46 383.36 28.63 522.64 28.63 522.64 0.03 355.66 0.03"/><rect class="cls-1" x="425.11" y="75.1" width="27.7" height="175.15"/><path class="cls-1" d="M533.87,94.82h27.7V250.24h-27.7Z"/><polygon class="cls-1" points="891.45 0.03 891.45 56.46 919.15 56.46 919.15 28.63 1057.79 28.63 1057.79 0.03 891.45 0.03"/><polygon class="cls-1" points="891.45 94.82 1005.06 94.82 977.36 123.42 919.15 123.42 919.15 221.65 1057.79 221.65 1057.79 250.25 891.45 250.25 891.45 94.82"/><polygon class="cls-1" points="852.51 78.45 852.51 221.65 740.81 221.65 712.85 250.25 880.21 250.25 880.09 71.2 880.09 56.41 817.78 0 798.31 0.03 712.85 0.03 712.85 56.46 740.81 56.46 740.81 28.63 804.56 28.63 852.51 71.73 852.51 72.48 852.51 78.45"/><polygon class="cls-1" points="673.79 0.03 673.79 191.96 561.58 0.05 561.57 0.05 561.57 0.03 533.87 0.03 534 56.46 561.57 56.46 561.57 55.94 673.79 250.22 673.79 250.25 701.49 250.25 701.49 0.03 673.79 0.03"/><polygon class="cls-1" points="1170.09 125.47 1236.77 11.44 1243.4 0.03 1209.34 0.07 1153.4 96.92 1096.79 0.1 1096.79 0.03 1069.09 0.03 1069.09 56.46 1096.79 56.46 1096.79 56.01 1208.96 250.21 1242.7 250.25 1236.38 238.85 1170.09 125.47"/><polygon class="cls-1" points="1138.23 170.56 1101.18 107.2 1069.09 107.2 1073.88 115.85 1110.21 178.75 1073.94 241.56 1069.15 250.21 1101.24 250.21 1142.94 178.88 1138.23 170.56"/></g></g></svg>